<svg xmlns="http://www.w3.org/2000/svg" viewBox="0 0 100 100"><defs><style>.cls-1,.cls-3{fill:#fff;}.cls-2{fill:none;stroke-width:3px;}.cls-2,.cls-3{stroke:#000;stroke-linecap:round;stroke-linejoin:round;}.cls-3{stroke-width:4px;}</style></defs><title>80x80_Basketball</title><g id="Format"><rect class="cls-1" width="100" height="100"/></g><g id="Design"><line class="cls-2" x1="19.5" y1="65.5" x2="35.5" y2="61.5"/><line class="cls-2" x1="20.5" y1="48.5" x2="32.5" y2="45.5"/><line class="cls-2" x1="14.5" y1="58.5" x2="26.5" y2="55.5"/><polygon class="cls-3" points="38 40 51 27 68 27 81 40 81 56 68 69 51 69 38 56 38 40"/><polyline class="cls-2" points="61.5 68.5 61.5 55.5 51.5 45.5 38.5 45.5"/><polyline class="cls-2" points="64.5 28.5 64.5 34.5 73.5 43.5 79.5 43.5"/><polyline class="cls-2" points="46.5 32.5 58.5 38.5 68.5 48.5 75.5 61.5"/><line class="cls-2" x1="73.5" y1="34.5" x2="45.5" y2="62.5"/></g></svg>