<svg xmlns="http://www.w3.org/2000/svg" viewBox="0 0 100 100"><defs><style>.cls-1,.cls-2{fill:#fff;}.cls-2,.cls-3,.cls-4{stroke:#000;stroke-linecap:round;stroke-linejoin:round;}.cls-2,.cls-3{stroke-width:4px;}.cls-3,.cls-4{fill:none;}.cls-4{stroke-width:3px;}</style></defs><title>80x80_Dismissed_call</title><g id="Format"><rect class="cls-1" width="100" height="100"/></g><g id="Design"><polyline class="cls-2" points="52 75 58 51 63 30 56 23 28 23 23 44 17 68 24 75 52 75"/><line class="cls-3" x1="37" y1="23" x2="39" y2="15"/><polyline class="cls-3" points="56 23 51 44 45 68 17 68"/><line class="cls-3" x1="66" y1="69" x2="78" y2="81"/><line class="cls-3" x1="78" y1="63" x2="66" y2="81"/><line class="cls-4" x1="27.5" y1="49.5" x2="31.5" y2="49.5"/><line class="cls-4" x1="38.5" y1="49.5" x2="42.5" y2="49.5"/><line class="cls-4" x1="25.5" y1="55.5" x2="29.5" y2="55.5"/><line class="cls-4" x1="36.5" y1="55.5" x2="40.5" y2="55.5"/><line class="cls-4" x1="29.5" y1="43.5" x2="33.5" y2="43.5"/><line class="cls-4" x1="40.5" y1="43.5" x2="44.5" y2="43.5"/><line class="cls-4" x1="23.5" y1="61.5" x2="27.5" y2="61.5"/><line class="cls-4" x1="34.5" y1="61.5" x2="38.5" y2="61.5"/><line class="cls-4" x1="45.5" y1="68.5" x2="51.5" y2="74.5"/><polygon class="cls-4" points="46.5 37.5 30.5 37.5 32.5 29.5 48.5 29.5 46.5 37.5 46.5 37.5"/></g></svg>