<svg xmlns="http://www.w3.org/2000/svg" viewBox="0 0 100 100"><defs><style>.cls-1,.cls-2{fill:#fff;}.cls-2,.cls-3{stroke:#000;stroke-linecap:round;stroke-linejoin:round;}.cls-2{stroke-width:4px;}.cls-3{fill:none;stroke-width:3px;}</style></defs><title>80x80_Generic_confirmation</title><g id="Format"><rect class="cls-1" width="100" height="100"/></g><g id="Design"><polygon class="cls-2" points="50 21.99 61 39 78 44 66 57 68 77 50 69 32 77 34 57 22 44 39 39 50 21.99"/><line class="cls-3" x1="24" y1="26" x2="31" y2="33"/><line class="cls-3" x1="17.5" y1="48.5" x2="12" y2="48.5"/><line class="cls-3" x1="76" y1="26" x2="69" y2="33"/><line class="cls-3" x1="82.5" y1="48.5" x2="88" y2="48.5"/><line class="cls-3" x1="81" y1="69" x2="74" y2="62"/><line class="cls-3" x1="19" y1="69" x2="26" y2="62"/><line class="cls-3" x1="46.5" y1="43.5" x2="46.5" y2="50.5"/><line class="cls-3" x1="53.5" y1="43.5" x2="53.5" y2="50.5"/><polyline class="cls-3" points="41.5 55.5 45.5 59.5 54.5 59.5 58.5 55.5"/></g></svg>