<svg xmlns="http://www.w3.org/2000/svg" viewBox="0 0 100 100"><defs><style>.cls-1,.cls-2{fill:#fff;}.cls-2,.cls-3,.cls-4{stroke:#000;stroke-linecap:round;stroke-linejoin:round;}.cls-2,.cls-3{stroke-width:4px;}.cls-3,.cls-4{fill:none;}.cls-4{stroke-width:3px;}</style></defs><title>80x80_During_phone_call</title><g id="Format"><rect class="cls-1" width="100" height="100"/></g><g id="Design"><polyline class="cls-2" points="72 80 78 56 83 35 76 28 48 28 43 49 37 73 44 80 72 80"/><line class="cls-3" x1="57" y1="28" x2="59" y2="20"/><polyline class="cls-3" points="76 28 71 49 65 73 37 73"/><line class="cls-3" x1="29" y1="49" x2="17" y2="45"/><line class="cls-3" x1="29" y1="58" x2="21" y2="62"/><line class="cls-3" x1="34" y1="42" x2="29" y2="35"/><line class="cls-4" x1="47.5" y1="54.5" x2="51.5" y2="54.5"/><line class="cls-4" x1="58.5" y1="54.5" x2="62.5" y2="54.5"/><line class="cls-4" x1="45.5" y1="60.5" x2="49.5" y2="60.5"/><line class="cls-4" x1="56.5" y1="60.5" x2="60.5" y2="60.5"/><line class="cls-4" x1="49.5" y1="48.5" x2="53.5" y2="48.5"/><line class="cls-4" x1="60.5" y1="48.5" x2="64.5" y2="48.5"/><line class="cls-4" x1="43.5" y1="66.5" x2="47.5" y2="66.5"/><line class="cls-4" x1="54.5" y1="66.5" x2="58.5" y2="66.5"/><line class="cls-4" x1="65.5" y1="73.5" x2="71.5" y2="79.5"/><polygon class="cls-4" points="66.5 42.5 50.5 42.5 52.5 34.5 68.5 34.5 66.5 42.5 66.5 42.5"/></g></svg>