<svg xmlns="http://www.w3.org/2000/svg" viewBox="0 0 100 100"><defs><style>.cls-1,.cls-2,.cls-5{fill:#fff;}.cls-2,.cls-3,.cls-4,.cls-5{stroke:#000;}.cls-2,.cls-4,.cls-5{stroke-linecap:round;stroke-linejoin:round;}.cls-2{stroke-width:4px;}.cls-3,.cls-4{fill:none;}.cls-3{stroke-miterlimit:10;}.cls-3,.cls-4,.cls-5{stroke-width:3px;}</style></defs><title>80x80_Location</title><g id="Format"><rect class="cls-1" width="100" height="100"/></g><g id="Design"><polygon class="cls-2" points="50 76 68 88 86 76 71 46 62 52 50 44 38 52 29 46 14 76 32 88 50 76"/><line class="cls-3" x1="38.5" y1="51.5" x2="31.5" y2="86.5"/><line class="cls-3" x1="61.5" y1="51.5" x2="68.5" y2="86.5"/><line class="cls-4" x1="56.5" y1="63" x2="56.5" y2="11.5"/><line class="cls-4" x1="49.5" y1="46.5" x2="49.5" y2="78.5"/><polygon class="cls-5" points="81 29 72 32 64 28 56.5 31 56.5 15 64 12 72 16 81 13 75 23 81 29"/></g></svg>