<svg xmlns="http://www.w3.org/2000/svg" viewBox="0 0 100 100"><defs><style>.cls-1,.cls-2{fill:#fff;}.cls-2,.cls-3,.cls-4{stroke:#000;stroke-linecap:round;stroke-linejoin:round;}.cls-2,.cls-4{stroke-width:4px;}.cls-3,.cls-4{fill:none;}.cls-3{stroke-width:3px;}</style></defs><title>80x80_Lighthouse</title><g id="Format"><rect class="cls-1" width="100" height="100"/></g><g id="Design"><polygon class="cls-2" points="58 78 58 41 64 35 64 28 58 28 58 20 50 12 42 20 42 28 36 28 36 35 42 41 42 78 58 78"/><line class="cls-3" x1="55.5" y1="35.5" x2="42.5" y2="48.5"/><line class="cls-3" x1="57.5" y1="47.5" x2="42.5" y2="62.5"/><line class="cls-3" x1="57.5" y1="60.5" x2="42.5" y2="75.5"/><line class="cls-3" x1="43.5" y1="21.5" x2="56.5" y2="21.5"/><line class="cls-3" x1="36.5" y1="34.5" x2="63.5" y2="34.5"/><line class="cls-3" x1="42.5" y1="28.5" x2="56.5" y2="28.5"/><polyline class="cls-4" points="58 78 65 78 70 83 80 83 84 87"/><polyline class="cls-4" points="14 87 21 80 26 80 35 73 41 73"/><line class="cls-3" x1="70" y1="83.5" x2="59" y2="83.5"/><line class="cls-3" x1="26.5" y1="80.5" x2="29.5" y2="83.5"/><line class="cls-3" x1="41.5" y1="78.5" x2="37.5" y2="78.5"/><line class="cls-3" x1="68.5" y1="18.5" x2="76.5" y2="14.5"/><line class="cls-3" x1="71.5" y1="22.5" x2="80.5" y2="22.5"/><polyline class="cls-3" points="16.5 54.5 20.5 56.5 24.5 54.5"/><polyline class="cls-3" points="23.5 44.5 27.5 46.5 31.5 44.5"/></g></svg>