<svg xmlns="http://www.w3.org/2000/svg" viewBox="0 0 100 100"><defs><style>.cls-1,.cls-2,.cls-3{fill:#fff;}.cls-2,.cls-3,.cls-4{stroke:#000;stroke-linecap:round;stroke-linejoin:round;}.cls-2{stroke-width:4px;}.cls-3,.cls-4{stroke-width:3px;}.cls-4{fill:none;}</style></defs><title>80x80_Raining_and_snowing</title><g id="Format"><rect class="cls-1" width="100" height="100"/></g><g id="Design"><polygon class="cls-2" points="77 49 82 44 82 34 75 27 57 27 52 22 38 22 31 29 31 29 22 29 17 34 17 44 22 49 77 49 77 49"/><line class="cls-3" x1="27.5" y1="62.5" x2="27.5" y2="56.5"/><line class="cls-3" x1="48.5" y1="59.5" x2="54.5" y2="59.5"/><line class="cls-3" x1="51.5" y1="62.5" x2="51.5" y2="56.5"/><line class="cls-3" x1="51.5" y1="80.5" x2="51.5" y2="74.5"/><line class="cls-3" x1="39.5" y1="70.5" x2="39.5" y2="64.5"/><line class="cls-3" x1="24.5" y1="77.5" x2="30.5" y2="77.5"/><line class="cls-3" x1="27.5" y1="80.5" x2="27.5" y2="74.5"/><line class="cls-3" x1="59.5" y1="67.5" x2="65.5" y2="67.5"/><line class="cls-3" x1="62.5" y1="70.5" x2="62.5" y2="64.5"/><polyline class="cls-4" points="31.5 29.5 41.5 29.5 46.5 34.5"/></g></svg>