<svg xmlns="http://www.w3.org/2000/svg" viewBox="0 0 100 100"><defs><style>.cls-1,.cls-2{fill:#fff;}.cls-2,.cls-3,.cls-4{stroke:#000;stroke-linecap:round;stroke-linejoin:round;}.cls-2,.cls-3{stroke-width:4px;}.cls-3,.cls-4{fill:none;}.cls-4{stroke-width:3px;}</style></defs><title>80x80_Reached_fitness_goal</title><g id="Format"><rect class="cls-1" width="100" height="100"/></g><g id="Design"><polygon class="cls-2" points="50 77 75 51 75 39 62 26 50 38 38 26 25 39 25 51 50 77 50 77"/><polyline class="cls-3" points="43 50 50 57 59 42"/><line class="cls-4" x1="21.5" y1="72.5" x2="29.5" y2="64.5"/><line class="cls-4" x1="19.5" y1="22.5" x2="25.5" y2="28.5"/><line class="cls-4" x1="19.5" y1="38.5" x2="11.5" y2="36.5"/><line class="cls-4" x1="11.5" y1="54.5" x2="19.5" y2="52.5"/><line class="cls-4" x1="79.5" y1="72.5" x2="71.5" y2="64.5"/><line class="cls-4" x1="80.5" y1="22.5" x2="74.5" y2="28.5"/><line class="cls-4" x1="80.5" y1="38.5" x2="88.5" y2="36.5"/><line class="cls-4" x1="88.5" y1="54.5" x2="80.5" y2="52.5"/></g></svg>