<svg xmlns="http://www.w3.org/2000/svg" viewBox="0 0 100 100"><defs><style>.cls-1,.cls-4,.cls-5{fill:#fff;}.cls-2,.cls-3{fill:none;}.cls-2,.cls-3,.cls-4,.cls-5{stroke:#000;stroke-linecap:round;stroke-linejoin:round;}.cls-2,.cls-5{stroke-width:3px;}.cls-3,.cls-4{stroke-width:4px;}</style></defs><title>80x80_Generic_failed</title><g id="Format"><rect class="cls-1" width="100" height="100"/></g><g id="Design"><line class="cls-2" x1="32.5" y1="19.5" x2="19.5" y2="19.5"/><line class="cls-2" x1="24.5" y1="27.5" x2="12.5" y2="27.5"/><line class="cls-2" x1="17.5" y1="35.5" x2="25.5" y2="35.5"/><polyline class="cls-2" points="21.5 82.5 29.5 78.5 37.5 82.5 45.5 78.5 53.5 82.5 61.5 78.5 69.5 82.5 77.5 78.5"/><polyline class="cls-3" points="38 81 45 53 12 53"/><polygon class="cls-4" points="86 41 32 41 32 26 40 24 45 19 66 19 74 27 86 30 86 41"/><polygon class="cls-5" points="69.5 35.5 66.5 38.5 66.5 43.5 69.5 46.5 74.5 46.5 77.5 43.5 77.5 38.5 74.5 35.5 69.5 35.5 69.5 35.5"/><polygon class="cls-5" points="41.5 35.5 38.5 38.5 38.5 43.5 41.5 46.5 46.5 46.5 49.5 43.5 49.5 38.5 46.5 35.5 41.5 35.5 41.5 35.5"/></g></svg>