<svg xmlns="http://www.w3.org/2000/svg" viewBox="0 0 100 100"><defs><style>.cls-1,.cls-2,.cls-5{fill:#fff;}.cls-2,.cls-3,.cls-4,.cls-5{stroke:#000;stroke-linecap:round;stroke-linejoin:round;}.cls-2,.cls-3{stroke-width:4px;}.cls-3,.cls-4{fill:none;}.cls-4,.cls-5{stroke-width:3px;}</style></defs><title>80x80_Dismiss</title><g id="Format"><rect class="cls-1" width="100" height="100"/></g><g id="Design"><polygon class="cls-2" points="30 56 37 63 42 63 49 70 58 70 65 63 70 63 77 56 77 43 70 36 64 36 58 30 49 30 43 36 37 36 30 43 30 56 30 56"/><line class="cls-3" x1="43" y1="36" x2="48" y2="41"/><line class="cls-3" x1="42" y1="63" x2="48" y2="57"/><line class="cls-4" x1="82.5" y1="52.5" x2="57.5" y2="52.5"/><line class="cls-4" x1="88.5" y1="46.5" x2="57.5" y2="46.5"/><polygon class="cls-5" points="39.5 22.5 34.5 27.5 29.5 22.5 34.5 17.5 39.5 22.5 39.5 22.5"/><polygon class="cls-5" points="22.5 47.5 17.5 52.5 12.5 47.5 17.5 42.5 22.5 47.5 22.5 47.5"/><polygon class="cls-5" points="44.5 77.5 39.5 82.5 34.5 77.5 39.5 72.5 44.5 77.5 44.5 77.5"/></g></svg>