<svg xmlns="http://www.w3.org/2000/svg" viewBox="0 0 100 100"><defs><style>.cls-1,.cls-2,.cls-3{fill:#fff;}.cls-2,.cls-3,.cls-4,.cls-5{stroke:#000;stroke-linecap:round;stroke-linejoin:round;}.cls-2,.cls-4{stroke-width:4px;}.cls-3,.cls-5{stroke-width:3px;}.cls-4,.cls-5{fill:none;}</style></defs><title>80x80_Generic_sports</title><g id="Format"><rect class="cls-1" width="100" height="100"/></g><g id="Design"><polygon class="cls-2" points="30 50 42 38 60 38 72 50 72 68 60 80 42 80 30 68 30 50"/><line class="cls-3" x1="40.5" y1="30.5" x2="58.5" y2="12.5"/><line class="cls-3" x1="49.5" y1="19.5" x2="42.5" y2="12.5"/><line class="cls-4" x1="65" y1="43" x2="65" y2="31"/><line class="cls-4" x1="37" y1="43" x2="37" y2="31"/><polyline class="cls-5" points="81.5 12.5 63.5 30.5 37.5 30.5 19.5 12.5"/><line class="cls-5" x1="44.5" y1="25.5" x2="31.5" y2="12.5"/><polygon class="cls-5" points="43.5 54.5 45.5 56.5 48.5 56.5 48.5 63.5 45.5 63.5 45.5 68.5 56.5 68.5 56.5 63.5 53.5 63.5 53.5 49.5 48.5 49.5 43.5 54.5"/><line class="cls-5" x1="23.5" y1="73.5" x2="17.5" y2="79.5"/><line class="cls-5" x1="84.5" y1="79.5" x2="78.5" y2="73.5"/><line class="cls-5" x1="80.5" y1="58.5" x2="86.5" y2="58.5"/><line class="cls-5" x1="13.5" y1="58.5" x2="19.5" y2="58.5"/></g></svg>