<svg xmlns="http://www.w3.org/2000/svg" viewBox="0 0 100 100"><defs><style>.cls-1,.cls-3{fill:#fff;}.cls-2{fill:none;stroke-width:3px;}.cls-2,.cls-3{stroke:#000;stroke-linecap:round;stroke-linejoin:round;}.cls-3{stroke-width:4px;}</style></defs><title>80x80_Baseball_game</title><g id="Format"><rect class="cls-1" width="100" height="100"/></g><g id="Design"><line class="cls-2" x1="19.5" y1="65.5" x2="35.5" y2="61.5"/><line class="cls-2" x1="20.5" y1="48.5" x2="32.5" y2="45.5"/><line class="cls-2" x1="14.5" y1="58.5" x2="26.5" y2="55.5"/><polygon class="cls-3" points="38 40 51 27 68 27 81 40 81 56 68 69 51 69 38 56 38 40"/><polyline class="cls-2" points="38.5 51.5 50.5 51.5 62.5 39.5 62.5 27.5"/><polyline class="cls-2" points="80.5 48.5 74.5 48.5 60.5 62.5 60.5 67.5"/><line class="cls-2" x1="62.5" y1="45.5" x2="56.5" y2="39.5"/><line class="cls-2" x1="56.5" y1="51.5" x2="50.5" y2="45.5"/><line class="cls-2" x1="65.5" y1="61.5" x2="60.5" y2="56.5"/><line class="cls-2" x1="72.5" y1="54.5" x2="67.5" y2="49.5"/><line class="cls-2" x1="59.5" y1="34.5" x2="66.5" y2="34.5"/><line class="cls-2" x1="45.5" y1="47.5" x2="45.5" y2="54.5"/><line class="cls-2" x1="75.5" y1="45.5" x2="75.5" y2="47.5"/><line class="cls-2" x1="59.5" y1="63.5" x2="57.5" y2="63.5"/></g></svg>